<?xml version="1.0" encoding="iso-8859-1"?>
<!-- Uploaded to: SVG Repo, www.svgrepo.com, Generator: SVG Repo Mixer Tools -->
<svg version="1.1" id="Layer_1" xmlns="http://www.w3.org/2000/svg" xmlns:xlink="http://www.w3.org/1999/xlink" 
	 viewBox="0 0 512 512" xml:space="preserve">
<path style="fill:#AEADB3;" d="M425.347,468.992c-2.692,0-5.415-0.544-8.001-1.675c-17.573-7.7-81.137-32.815-161.348-32.815
	s-143.772,25.117-161.344,32.814c-8.728,3.823-19.019,0.927-24.47-6.881c-5.453-7.809-4.623-18.466,1.968-25.341
	C186.457,315.937,237.211,92.289,237.211,27.393h37.579c0,64.896,50.753,288.544,165.057,407.7
	c6.594,6.876,7.422,17.533,1.969,25.342C437.978,465.931,431.746,468.992,425.347,468.992z M256,396.922
	c45.128,0,85.512,7.323,116.679,15.573c-43.826-61.302-73.867-132.096-92.604-185.955c-9.769-28.08-17.756-55.189-24.076-80.274
	c-6.32,25.085-14.306,52.194-24.076,80.274c-18.737,53.859-48.775,124.654-92.604,185.955
	C170.489,404.247,210.872,396.922,256,396.922z"/>
<path style="fill:#56545A;" d="M439.847,435.093C325.543,315.937,274.79,92.289,274.79,27.393H256v118.872l0,0
	c6.32,25.085,14.306,52.194,24.076,80.274c18.737,53.859,48.777,124.654,92.604,185.955c-31.168-8.25-71.551-15.573-116.679-15.573
	l0,0V434.5l0,0c80.209,0,143.773,25.117,161.348,32.815c2.584,1.131,5.307,1.675,8.001,1.675c6.397,0,12.63-3.061,16.469-8.557
	C447.267,452.626,446.439,441.969,439.847,435.093z"/>
<rect x="237.213" y="27.393" style="fill:#88888F;" width="37.579" height="457.214"/>
<path style="fill:#FF4F19;" d="M510.695,132.83c-5.431-20.27-26.265-32.299-46.536-26.868l-26.215,7.024l-7.025-26.215
	c-5.431-20.27-26.267-32.299-46.536-26.868c-20.27,5.431-32.299,26.267-26.868,46.536l26.693,99.619l99.619-26.693
	C504.099,173.935,516.126,153.099,510.695,132.83z"/>
<g>
	<path style="fill:#AF2E08;" d="M510.696,132.83c-5.431-20.27-26.267-32.299-46.536-26.868l-26.215,7.025l-53.735,93.071
		l99.619-26.693C504.099,173.935,516.128,153.099,510.696,132.83z"/>
	<path style="fill:#AF2E08;" d="M127.617,59.904c-20.27-5.431-41.104,6.598-46.536,26.868l-7.025,26.215l8.478,54.1l45.258,38.971
		l26.693-99.619C159.916,86.169,147.887,65.336,127.617,59.904z"/>
</g>
<path style="fill:#FF4F19;" d="M1.304,132.83c5.431-20.27,26.267-32.299,46.536-26.868l26.215,7.025l53.735,93.071l-99.618-26.693
	C7.902,173.935-4.127,153.099,1.304,132.83z"/>
</svg>